<svg width="27" height="28" viewBox="0 0 27 28" fill="none" xmlns="http://www.w3.org/2000/svg">
    <path d="M12.5695 4.11343C12.7065 3.83178 12.9936 3.65344 13.3068 3.65344C13.6211 3.65344 13.9071 3.83178 14.0441 4.11343C15.1032 6.28613 16.9258 10.0291 16.9258 10.0291C16.9258 10.0291 21.07 10.5989 23.4743 10.9306C23.9126 10.9904 24.1812 11.3612 24.1812 11.7429C24.1812 11.9495 24.1029 12.1594 23.93 12.3258C22.1792 13.9982 19.1648 16.8832 19.1648 16.8832C19.1648 16.8832 19.901 20.9796 20.3273 23.3556C20.4176 23.858 20.0283 24.3147 19.5204 24.3147C19.3878 24.3147 19.2551 24.2832 19.1344 24.218C16.9943 23.0783 13.3068 21.1177 13.3068 21.1177C13.3068 21.1177 9.6193 23.0783 7.47923 24.218C7.35852 24.2832 7.22477 24.3147 7.0921 24.3147C6.58644 24.3147 6.19497 23.8569 6.28631 23.3556C6.71367 20.9796 7.44987 16.8832 7.44987 16.8832C7.44987 16.8832 4.43441 13.9982 2.68472 12.3258C2.51073 12.1594 2.43243 11.9495 2.43243 11.744C2.43243 11.3612 2.70321 10.9893 3.14036 10.9306C5.54468 10.5989 9.68781 10.0291 9.68781 10.0291C9.68781 10.0291 11.5114 6.28613 12.5695 4.11343Z" fill="#FF9900"/>
</svg>
